<svg xmlns="http://www.w3.org/2000/svg" width="1200" height="1200" viewBox="0 0 1200 1200" fill="none" role="img" aria-labelledby="title desc">
  <title id="title">Tech Data Platform Background</title>
  <desc id="desc">High‑tech big data platform abstract with neon grid, circuits, flowing connections, hex ring and soft glows.</desc>
  <defs>
    <linearGradient id="bgGradient" x1="0" y1="0" x2="1200" y2="1200" gradientUnits="userSpaceOnUse">
      <stop offset="0" stop-color="#071A2F" />
      <stop offset="1" stop-color="#1B0F3A" />
    </linearGradient>
    <radialGradient id="centerGlow" cx="0" cy="0" r="1" gradientUnits="userSpaceOnUse" gradientTransform="translate(600 620) scale(520)">
      <stop offset="0" stop-color="#38BDF8" stop-opacity="0.70" />
      <stop offset="0.55" stop-color="#0EA5E9" stop-opacity="0.15" />
      <stop offset="1" stop-color="#041424" stop-opacity="0" />
    </radialGradient>
    <linearGradient id="gridStroke" x1="0" y1="0" x2="1200" y2="0" gradientUnits="userSpaceOnUse">
      <stop offset="0" stop-color="#7DD3FC" stop-opacity="0" />
      <stop offset="0.5" stop-color="#7DD3FC" stop-opacity="0.32" />
      <stop offset="1" stop-color="#7DD3FC" stop-opacity="0" />
    </linearGradient>
    <linearGradient id="orbitStroke" x1="600" y1="220" x2="600" y2="980" gradientUnits="userSpaceOnUse">
      <stop offset="0" stop-color="#7C3AED" stop-opacity="0.08" />
      <stop offset="0.5" stop-color="#A855F7" stop-opacity="0.5" />
      <stop offset="1" stop-color="#22D3EE" stop-opacity="0.12" />
    </linearGradient>
    <linearGradient id="traceStroke" x1="0" y1="0" x2="1" y2="0">
      <stop offset="0" stop-color="#34D399" />
      <stop offset="0.5" stop-color="#60A5FA" />
      <stop offset="1" stop-color="#A855F7" />
    </linearGradient>
    <radialGradient id="nodeGlow" cx="0" cy="0" r="1" gradientUnits="userSpaceOnUse" gradientTransform="translate(0 0) scale(18)">
      <stop offset="0" stop-color="#E0F2FE" />
      <stop offset="1" stop-color="#0284C7" stop-opacity="0" />
    </radialGradient>
    <filter id="softGlow" x="-50%" y="-50%" width="200%" height="200%" color-interpolation-filters="sRGB">
      <feGaussianBlur in="SourceGraphic" stdDeviation="12" result="b"/>
      <feMerge>
        <feMergeNode in="b"/>
        <feMergeNode in="SourceGraphic"/>
      </feMerge>
    </filter>
    <symbol id="hex" viewBox="-12 -12 24 24">
      <polygon points="0,-10 8.66,-5 8.66,5 0,10 -8.66,5 -8.66,-5" fill="none" stroke="#22D3EE" stroke-width="1.5" opacity="0.65" />
    </symbol>
  </defs>

  <!-- Base -->
  <rect width="1200" height="1200" rx="32" fill="url(#bgGradient)" />
  <rect width="1200" height="1200" fill="url(#centerGlow)" />

  <!-- Grid -->
  <g stroke="url(#gridStroke)" stroke-width="1.25">
    <path d="M120 0V1200" />
    <path d="M240 0V1200" />
    <path d="M360 0V1200" />
    <path d="M480 0V1200" />
    <path d="M600 0V1200" />
    <path d="M720 0V1200" />
    <path d="M840 0V1200" />
    <path d="M960 0V1200" />
    <path d="M0 200H1200" />
    <path d="M0 360H1200" />
    <path d="M0 520H1200" />
    <path d="M0 680H1200" />
    <path d="M0 840H1200" />
    <path d="M0 1000H1200" />
  </g>

  <!-- Orbits / Rings -->
  <circle cx="600" cy="620" r="290" stroke="url(#orbitStroke)" stroke-width="2.5" />
  <circle cx="600" cy="620" r="210" stroke="url(#orbitStroke)" stroke-width="2" stroke-dasharray="14 14" />
  <circle cx="600" cy="620" r="140" stroke="#22D3EE" stroke-opacity="0.35" stroke-width="1.5" stroke-dasharray="8 12" />

  <!-- Data flows -->
  <g opacity="0.9" stroke-linecap="round" stroke-linejoin="round">
    <path d="M300 500C420 400 520 380 620 420C720 460 840 560 900 640" stroke="#38BDF8" stroke-width="2.4" />
    <path d="M260 700C340 600 460 560 580 580C700 600 820 680 900 780" stroke="#22D3EE" stroke-width="2" />
    <path d="M360 860C420 760 520 720 640 720C760 720 880 780 940 860" stroke="#A855F7" stroke-opacity="0.6" stroke-width="2.4" />
  </g>

  <!-- Nodes -->
  <g opacity="0.9">
    <circle cx="300" cy="500" r="6" fill="#38BDF8" />
    <circle cx="620" cy="420" r="8" fill="#22D3EE" />
    <circle cx="900" cy="640" r="9" fill="#A855F7" />
    <circle cx="260" cy="700" r="6" fill="#38BDF8" />
    <circle cx="580" cy="580" r="9" fill="#22D3EE" />
    <circle cx="900" cy="780" r="7" fill="#A855F7" />
    <circle cx="360" cy="860" r="6" fill="#38BDF8" />
    <circle cx="640" cy="720" r="9" fill="#22D3EE" />
    <circle cx="940" cy="860" r="6" fill="#A855F7" />
  </g>

  <!-- Node glows -->
  <g opacity="0.8" filter="url(#softGlow)">
    <circle cx="520" cy="520" r="18" fill="url(#nodeGlow)" />
    <circle cx="600" cy="600" r="28" fill="url(#nodeGlow)" />
    <circle cx="704" cy="516" r="16" fill="url(#nodeGlow)" />
    <circle cx="632" cy="752" r="18" fill="url(#nodeGlow)" />
    <circle cx="840" cy="520" r="20" fill="url(#nodeGlow)" />
    <circle cx="760" cy="880" r="18" fill="url(#nodeGlow)" />
  </g>

  <!-- Circuit traces -->
  <g opacity="0.9" stroke="url(#traceStroke)" stroke-width="2" stroke-linecap="round" stroke-linejoin="round">
    <path d="M500 520L600 600L720 520" />
    <path d="M500 520L500 660L640 800" />
    <path d="M720 520L880 520" />
    <path d="M640 800L780 920" />
  </g>

  <!-- Hex ring -->
  <g transform="translate(600 620)">
    <use href="#hex" transform="rotate(0) translate(0 -260)" />
    <use href="#hex" transform="rotate(30) translate(0 -260)" />
    <use href="#hex" transform="rotate(60) translate(0 -260)" />
    <use href="#hex" transform="rotate(90) translate(0 -260)" />
    <use href="#hex" transform="rotate(120) translate(0 -260)" />
    <use href="#hex" transform="rotate(150) translate(0 -260)" />
    <use href="#hex" transform="rotate(180) translate(0 -260)" />
    <use href="#hex" transform="rotate(210) translate(0 -260)" />
    <use href="#hex" transform="rotate(240) translate(0 -260)" />
    <use href="#hex" transform="rotate(270) translate(0 -260)" />
    <use href="#hex" transform="rotate(300) translate(0 -260)" />
    <use href="#hex" transform="rotate(330) translate(0 -260)" />
  </g>

  <!-- Accent dots -->
  <g fill="#7DD3FC" opacity="0.45">
    <circle cx="140" cy="180" r="2" />
    <circle cx="220" cy="260" r="1.5" />
    <circle cx="340" cy="200" r="2" />
    <circle cx="980" cy="260" r="2" />
    <circle cx="1060" cy="180" r="2" />
    <circle cx="1040" cy="360" r="1.5" />
    <circle cx="160" cy="360" r="1.5" />
    <circle cx="280" cy="1040" r="2" />
    <circle cx="920" cy="1040" r="1.5" />
  </g>
</svg>
